:FULLY-SPECIFIED
:FORCE-ALL-JOINTS-BE-3DOF
:DEGREES
204
root -2.89729 16.3091 -36.1145 3.77603 0.705603 -2.96459
lfemur -23.919 6.6905 -8.13662
ltibia 48.6555 -0 0
lfoot -23.7999 0.413319 -8.83128e-006
ltoes -9.78635 0 0
rfemur -23.8101 -7.54112 14.7013
rtibia 50.6623 -0 0
rfoot -27.6045 1.97981 7.21213e-005
rtoes -8.47747 0 0
lowerback 7.31401 1.95549 -1.6348
upperback -3.75936 2.54884 1.32237
thorax -8.2096 1.37631 1.94788
lowerneck -3.42401 -3.91147 -6.55694
upperneck 6.8676 -5.27653 5.99143
head 3.23759 -2.59913 2.9503
lclavicle 7.61206e-015 -4.87022e-015 0
lhumerus -26.5611 -1.85935 88.8094
lradius 24.347 -0 0
lwrist -31.339 0 0
lhand -28.2754 30.0661 6.18519e-006
lfingers 7.12502 -0 0
lthumb -1.65193 60.0395 6.00274e-006
rclavicle 7.61206e-015 -4.87022e-015 0
rhumerus -32.2891 1.97022 -79.876
rradius 30.4594 -0 0
rwrist 3.15 0 0
rhand -19.8204 -27.0112 -2.51652e-005
rfingers 7.12502 -0 0
rthumb 6.51319 -56.891 -2.37398e-005
205
root -2.89816 16.3068 -36.1133 3.76648 0.709375 -2.96301
lfemur -23.9252 6.70213 -8.13305
ltibia 48.6924 -0 0
lfoot -23.821 0.410256 -9.06562e-006
ltoes -9.80871 0 0
rfemur -23.8142 -7.55376 14.7003
rtibia 50.7012 -0 0
rfoot -27.6274 1.97255 5.442e-005
rtoes -8.51696 0 0
lowerback 7.31306 1.9574 -1.63387
upperback -3.75424 2.55135 1.32076
thorax -8.20351 1.37734 1.94539
lowerneck -3.42372 -3.9135 -6.5543
upperneck 6.86526 -5.27944 5.9926
head 3.23688 -2.60047 2.95006
lclavicle 7.61206e-015 -4.87022e-015 0
lhumerus -26.5533 -1.87741 88.8272
lradius 24.354 -0 0
lwrist -31.3287 0 0
lhand -28.2784 30.0622 5.30392e-006
lfingers 7.12502 -0 0
lthumb -1.65486 60.0356 5.14837e-006
rclavicle 7.61206e-015 -4.87022e-015 0
rhumerus -32.2891 1.97473 -79.8758
rradius 30.465 -0 0
rwrist 3.14362 0 0
rhand -19.8145 -27.0186 -2.17331e-005
rfingers 7.12502 -0 0
rthumb 6.51886 -56.8983 -2.0506e-005
206
root -2.89904 16.3045 -36.1121 3.75682 0.713508 -2.96143
lfemur -23.9314 6.71341 -8.12971
ltibia 48.729 -0 0
lfoot -23.8418 0.407061 -8.87503e-006
ltoes -9.82989 0 0
rfemur -23.8179 -7.56602 14.6991
rtibia 50.7396 -0 0
rfoot -27.65 1.96509 3.73192e-005
rtoes -8.55416 0 0
lowerback 7.31251 1.95901 -1.63305
upperback -3.74916 2.55343 1.31925
thorax -8.19769 1.37818 1.94311
lowerneck -3.42333 -3.91551 -6.55207
upperneck 6.86262 -5.28233 5.99411
head 3.23609 -2.6018 2.95002
lclavicle 7.61206e-015 -4.87022e-015 0
lhumerus -26.5458 -1.89423 88.8441
lradius 24.3606 -0 0
lwrist -31.3188 0 0
lhand -28.2812 30.0586 4.29384e-006
lfingers 7.12502 -0 0
lthumb -1.65756 60.032 4.16862e-006
rclavicle 7.61206e-015 -4.87022e-015 0
rhumerus -32.289 1.9785 -79.8752
rradius 30.4697 -0 0
rwrist 3.13819 0 0
rhand -19.8092 -27.0255 -1.78987e-005
rfingers 7.12502 -0 0
rthumb 6.52402 -56.905 -1.6892e-005
207
root -2.89992 16.3022 -36.1109 3.74708 0.718045 -2.95989
lfemur -23.9376 6.72429 -8.12653
ltibia 48.7653 -0 0
lfoot -23.8624 0.403725 -8.21101e-006
ltoes -9.84972 0 0
rfemur -23.8213 -7.5779 14.6977
rtibia 50.7775 -0 0
rfoot -27.6722 1.95752 2.1859e-005
rtoes -8.58858 0 0
lowerback 7.31244 1.96025 -1.63234
upperback -3.74414 2.55502 1.31786
thorax -8.1922 1.37878 1.94108
lowerneck -3.42292 -3.9175 -6.55031
upperneck 6.85973 -5.28517 5.99597
head 3.23523 -2.6031 2.9502
lclavicle 7.61206e-015 -4.87022e-015 0
lhumerus -26.5388 -1.90954 88.8599
lradius 24.3669 -0 0
lwrist -31.3093 0 0
lhand -28.2837 30.0554 3.22693e-006
lfingers 7.12502 -0 0
lthumb -1.65996 60.0288 3.13337e-006
rclavicle 7.61206e-015 -4.87022e-015 0
rhumerus -32.2888 1.98146 -79.8741
rradius 30.4733 -0 0
rwrist 3.1338 0 0
rhand -19.8045 -27.0316 -1.38671e-005
rfingers 7.12502 -0 0
rthumb 6.52858 -56.911 -1.30911e-005
208
root -2.9008 16.3 -36.1097 3.73732 0.723029 -2.95847
lfemur -23.944 6.73475 -8.12347
ltibia 48.8013 -0 0
lfoot -23.8829 0.400241 -7.02943e-006
ltoes -9.868 0 0
rfemur -23.8245 -7.5894 14.6961
rtibia 50.8148 -0 0
rfoot -27.694 1.94994 9.16052e-006
rtoes -8.61976 0 0
lowerback 7.31291 1.96107 -1.63174
upperback -3.7392 2.55604 1.31664
thorax -8.1871 1.37912 1.93936
lowerneck -3.42253 -3.91946 -6.54909
upperneck 6.85664 -5.28795 5.99821
head 3.23435 -2.60438 2.9506
lclavicle 7.61206e-015 -4.87022e-015 0
lhumerus -26.5321 -1.92305 88.8743
lradius 24.3726 -0 0
lwrist -31.3004 0 0
lhand -28.2858 30.0527 2.18285e-006
lfingers 7.12502 -0 0
lthumb -1.662 60.026 2.11997e-006
rclavicle 7.61206e-015 -4.87022e-015 0
rhumerus -32.2884 1.98357 -79.8726
rradius 30.4758 -0 0
rwrist 3.13059 0 0
rhand -19.8004 -27.0368 -9.85411e-006
rfingers 7.12502 -0 0
rthumb 6.53247 -56.9161 -9.30616e-006
209
root -2.90167 16.2977 -36.1085 3.72758 0.728503 -2.95721
lfemur -23.9507 6.74475 -8.12045
ltibia 48.8372 -0 0
lfoot -23.9032 0.396599 -5.29038e-006
ltoes -9.88457 0 0
rfemur -23.8274 -7.60053 14.6945
rtibia 50.8514 -0 0
rfoot -27.7153 1.94242 4.23205e-007
rtoes -8.64724 0 0
lowerback 7.31398 1.96141 -1.63126
upperback -3.73438 2.55642 1.31561
thorax -8.18245 1.37917 1.93798
lowerneck -3.42222 -3.92137 -6.54846
upperneck 6.85342 -5.29066 6.00083
head 3.23347 -2.60562 2.95126
lclavicle 7.61206e-015 -4.87022e-015 0
lhumerus -26.5259 -1.93449 88.8871
lradius 24.3777 -0 0
lwrist -31.2923 0 0
lhand -28.2875 30.0505 1.24446e-006
lfingers 7.12502 -0 0
lthumb -1.66362 60.0238 1.20892e-006
rclavicle 7.61206e-015 -4.87022e-015 0
rhumerus -32.2877 1.98476 -79.8708
rradius 30.4771 -0 0
rwrist 3.12865 0 0
rhand -19.7972 -27.0411 -6.07478e-006
rfingers 7.12502 -0 0
rthumb 6.5356 -56.9204 -5.73984e-006
210
root -2.90255 16.2954 -36.1073 3.71791 0.734511 -2.9562
lfemur -23.9577 6.75428 -8.11743
ltibia 48.8728 -0 0
lfoot -23.9232 0.392791 -2.95794e-006
ltoes -9.89922 0 0
rfemur -23.83 -7.61129 14.6929
rtibia 50.8874 -0 0
rfoot -27.7361 1.93506 -3.07866e-006
rtoes -8.67053 0 0
lowerback 7.31571 1.96122 -1.63088
upperback -3.72969 2.55608 1.31482
thorax -8.17831 1.37888 1.937
lowerneck -3.42206 -3.92323 -6.54849
upperneck 6.85013 -5.29328 6.00385
head 3.23263 -2.60683 2.95218
lclavicle 7.61206e-015 -4.87022e-015 0
lhumerus -26.5202 -1.94357 88.8982
lradius 24.3821 -0 0
lwrist -31.2849 0 0
lhand -28.2887 30.0489 4.92603e-007
lfingers 7.12502 -0 0
lthumb -1.66476 60.0222 4.78713e-007
rclavicle 7.61206e-015 -4.87022e-015 0
rhumerus -32.2867 1.98499 -79.8685
rradius 30.4772 -0 0
rwrist 3.12811 0 0
rhand -19.7948 -27.0444 -2.7315e-006
rfingers 7.12502 -0 0
rthumb 6.53789 -56.9236 -2.58264e-006
211
root -2.90343 16.2931 -36.1061 3.70836 0.741095 -2.95548
lfemur -23.9652 6.76329 -8.11434
ltibia 48.9082 0 0
lfoot -23.9431 0.388808 0
ltoes -9.91177 0 0
rfemur -23.8325 -7.62169 14.6913
rtibia 50.9227 0 0
rfoot -27.7564 1.92794 0
rtoes -8.68918 0 0
lowerback 7.31817 1.96043 -1.6306
upperback -3.72515 2.55495 1.3143
thorax -8.17475 1.37822 1.93645
lowerneck -3.4221 -3.92503 -6.54924
upperneck 6.84681 -5.29579 6.00728
head 3.23186 -2.60798 2.95339
lclavicle 7.61206e-015 -4.87022e-015 0
lhumerus -26.5151 -1.95002 88.9072
lradius 24.3857 0 0
lwrist -31.2785 0 0
lhand -28.2893 30.048 0
lfingers 7.12502 0 0
lthumb -1.66536 60.0213 0
rclavicle 7.61206e-015 -4.87022e-015 0
rhumerus -32.2852 1.98419 -79.8659
rradius 30.476 0 0
rwrist 3.12908 0 0
rhand -19.7934 -27.0466 0
rfingers 7.12502 0 0
rthumb 6.53927 -56.9257 0
212
root -2.90331 16.2911 -36.1058 3.69872 0.74869 -2.95455
lfemur -23.9723 6.77363 -8.11174
ltibia 48.9423 -0 0
lfoot -23.9632 0.382839 8.39744e-006
ltoes -9.91939 0 0
rfemur -23.8339 -7.63083 14.6892
rtibia 50.9568 -0 0
rfoot -27.7763 1.91959 1.21916e-005
rtoes -8.70217 0 0
lowerback 7.32022 1.95848 -1.63195
upperback -3.7206 2.55209 1.3138
thorax -8.17093 1.37681 1.93711
lowerneck -3.41942 -3.93706 -6.55909
upperneck 6.83955 -5.31205 6.01858
head 3.22996 -2.616 2.95812
lclavicle 3.26131e-015 -6.26172e-015 0
lhumerus -26.5099 -1.94804 88.9122
lradius 24.3878 -0 0
lwrist -31.282 0 0
lhand -28.2938 30.0431 -0.000166152
lfingers 7.12502 -0 0
lthumb -1.66967 60.0164 -0.000160271
rclavicle 3.26131e-015 -6.26172e-015 0
rhumerus -32.2829 1.98277 -79.8641
rradius 30.4712 -0 0
rwrist 3.13331 0 0
rhand -19.7948 -27.045 3.52121e-005
rfingers 7.12502 -0 0
rthumb 6.53791 -56.9242 3.3183e-005
213
root -2.90319 16.2891 -36.1054 3.68879 0.757593 -2.95292
lfemur -23.9781 6.78679 -8.11012
ltibia 48.9743 -0 0
lfoot -23.9838 0.373444 2.466e-005
ltoes -9.92002 0 0
rfemur -23.8336 -7.63799 14.6862
rtibia 50.9896 -0 0
rfoot -27.7959 1.90872 3.31325e-005
rtoes -8.70927 0 0
lowerback 7.32086 1.95499 -1.63613
upperback -3.71586 2.54685 1.31306
thorax -8.16611 1.37437 1.93955
lowerneck -3.41159 -3.96757 -6.58466
upperneck 6.82512 -5.35316 6.0437
head 3.22593 -2.63642 2.96893
lclavicle 3.26131e-015 -6.26172e-015 0
lhumerus -26.5043 -1.93334 88.912
lradius 24.3881 -0 0
lwrist -31.3025 0 0
lhand -28.3057 30.0305 -0.000632532
lfingers 7.12502 -0 0
lthumb -1.68118 60.0038 -0.000610139
rclavicle 3.26131e-015 -6.26172e-015 0
rhumerus -32.2797 1.98113 -79.8639
rradius 30.461 -0 0
rwrist 3.14209 0 0
rhand -19.8005 -27.0377 0.00012995
rfingers 7.12502 -0 0
rthumb 6.53245 -56.917 0.000122444
214
root -2.90308 16.2871 -36.1051 3.67858 0.767639 -2.9507
lfemur -23.983 6.80225 -8.10937
ltibia 49.0045 -0 0
lfoot -24.0048 0.361173 4.5488e-005
ltoes -9.91467 0 0
rfemur -23.8317 -7.64344 14.6822
rtibia 51.0212 -0 0
rfoot -27.8153 1.89571 6.00917e-005
rtoes -8.71115 0 0
lowerback 7.32039 1.95017 -1.64271
upperback -3.71096 2.53956 1.31214
thorax -8.1605 1.37106 1.94348
lowerneck -3.39944 -4.01346 -6.62341
upperneck 6.80462 -5.41496 6.08042
head 3.2201 -2.66718 2.98485
lclavicle 3.26131e-015 -6.26172e-015 0
lhumerus -26.4982 -1.90788 88.9071
lradius 24.3866 -0 0
lwrist -31.3371 0 0
lhand -28.3238 30.0114 -0.0013535
lfingers 7.12502 -0 0
lthumb -1.69866 59.9848 -0.00130558
rclavicle 3.26131e-015 -6.26172e-015 0
rhumerus -32.2758 1.97919 -79.8651
rradius 30.4462 -0 0
rwrist 3.15479 0 0
rhand -19.8097 -27.0255 0.00027571
rfingers 7.12502 -0 0
rthumb 6.52351 -56.9052 0.00025977
